<?xml version="1.0" encoding="UTF-8" standalone="no"?>
<!-- Created with Inkscape (http://www.inkscape.org/) -->

<svg
   xmlns:dc="http://purl.org/dc/elements/1.1/"
   xmlns:cc="http://creativecommons.org/ns#"
   xmlns:rdf="http://www.w3.org/1999/02/22-rdf-syntax-ns#"
   xmlns:svg="http://www.w3.org/2000/svg"
   xmlns="http://www.w3.org/2000/svg"
   xmlns:sodipodi="http://sodipodi.sourceforge.net/DTD/sodipodi-0.dtd"
   xmlns:inkscape="http://www.inkscape.org/namespaces/inkscape"
   width="594.29431"
   height="154.48389"
   id="svg2"
   version="1.1"
   inkscape:version="0.48.2 r9819"
   sodipodi:docname="New document 1">
  <defs
     id="defs4"><filter
   id="filter5522"
   x="-0.25"
   width="1.5"
   y="-0.25"
   height="1.5"
   inkscape:menu="Non realistic 3D shaders"
   inkscape:menu-tooltip="Brushed aluminium shader"
   inkscape:label="Aluminium"
   color-interpolation-filters="sRGB">
  <feGaussianBlur
     id="feGaussianBlur5524"
     result="result8"
     stdDeviation="7" />
  <feComposite
     id="feComposite5526"
     in2="SourceGraphic"
     in="result8"
     operator="xor"
     result="result6" />
  <feDisplacementMap
     id="feDisplacementMap5528"
     in2="result6"
     result="result4"
     scale="75"
     yChannelSelector="A"
     xChannelSelector="A"
     in="result6" />
  <feComposite
     id="feComposite5530"
     in2="SourceGraphic"
     k1="1"
     in="result4"
     operator="arithmetic"
     result="result2"
     k2="0"
     k3="0"
     k4="0" />
</filter>
<filter
   id="filter5532"
   x="-0.25"
   width="1.5"
   y="-0.25"
   height="1.5"
   inkscape:menu="Non realistic 3D shaders"
   inkscape:menu-tooltip="Non realistic chrome shader with strong speculars"
   inkscape:label="Chrome"
   color-interpolation-filters="sRGB">
  <feGaussianBlur
     id="feGaussianBlur5534"
     result="result8"
     stdDeviation="4" />
  <feComposite
     id="feComposite5536"
     in2="result8"
     in="result8"
     operator="xor"
     result="result6" />
  <feDisplacementMap
     id="feDisplacementMap5538"
     in2="result6"
     result="result4"
     scale="80"
     yChannelSelector="A"
     xChannelSelector="A"
     in="result6" />
  <feComposite
     id="feComposite5540"
     in2="result4"
     k1="3"
     in="result8"
     operator="arithmetic"
     result="result2"
     k2="0"
     k3="0"
     k4="0" />
  <feComposite
     id="feComposite5542"
     in2="result2"
     operator="in"
     in="result2"
     result="fbSourceGraphic" />
</filter>
<filter
   id="filter5544"
   inkscape:label="Comics draft"
   inkscape:menu-tooltip="Draft painted cartoon shading with a glassy look"
   inkscape:menu="Non realistic 3D shaders"
   height="1.5"
   y="-0.25"
   width="1.5"
   x="-0.25"
   color-interpolation-filters="sRGB">
  <feGaussianBlur
     id="feGaussianBlur5546"
     stdDeviation="7"
     result="result8" />
  <feComposite
     id="feComposite5548"
     in2="result8"
     result="result6"
     operator="xor"
     in="result8" />
  <feDisplacementMap
     id="feDisplacementMap5550"
     in2="result6"
     in="SourceGraphic"
     xChannelSelector="A"
     yChannelSelector="A"
     scale="100"
     result="result4" />
  <feComposite
     id="feComposite5552"
     in2="result4"
     result="result2"
     operator="arithmetic"
     in="SourceGraphic"
     k1="1"
     k2="0"
     k3="0"
     k4="0" />
  <feComposite
     id="feComposite5554"
     in2="result2"
     result="fbSourceGraphic"
     in="result6"
     operator="in" />
</filter>
<filter
   id="filter5556"
   x="-0.25"
   width="1.5"
   y="-0.25"
   height="1.5"
   inkscape:menu="Non realistic 3D shaders"
   inkscape:menu-tooltip="Silky close to mother of pearl shading"
   inkscape:label="Satin"
   color-interpolation-filters="sRGB">
  <feGaussianBlur
     id="feGaussianBlur5558"
     result="result8"
     stdDeviation="7" />
  <feComposite
     id="feComposite5560"
     in2="result8"
     in="result8"
     operator="xor"
     result="result6" />
  <feDisplacementMap
     id="feDisplacementMap5562"
     in2="result6"
     result="result4"
     scale="75"
     yChannelSelector="A"
     xChannelSelector="A"
     in="result6" />
  <feComposite
     id="feComposite5564"
     in2="result4"
     k1="1"
     in="SourceGraphic"
     operator="arithmetic"
     result="result2"
     k2="0"
     k3="0"
     k4="0" />
  <feComposite
     id="feComposite5566"
     in2="result2"
     operator="in"
     in="result8"
     result="fbSourceGraphic" />
</filter>

	
	
	
	
	<linearGradient
   id="SVGID_2_"
   gradientUnits="userSpaceOnUse"
   x1="398.1221"
   y1="50.902802"
   x2="289.96811"
   y2="168.3773">
		<stop
   offset="0"
   style="stop-color:#FFFFFF"
   id="stop6923" />

		<stop
   offset="0.4835"
   style="stop-color:#FFF200"
   id="stop6925" />

		<stop
   offset="1"
   style="stop-color:#ED1C24"
   id="stop6927" />

	</linearGradient>

	
	<linearGradient
   id="SVGID_3_"
   gradientUnits="userSpaceOnUse"
   x1="328.1748"
   y1="160.1606"
   x2="240.9735"
   y2="195.1925">
		<stop
   offset="0"
   style="stop-color:#FFFFFF"
   id="stop6932" />

		<stop
   offset="0.4835"
   style="stop-color:#FFF200"
   id="stop6934" />

		<stop
   offset="1"
   style="stop-color:#ED1C24"
   id="stop6936" />

	</linearGradient>

	
	<linearGradient
   id="SVGID_4_"
   gradientUnits="userSpaceOnUse"
   x1="317.95609"
   y1="70.477501"
   x2="159.0531"
   y2="177.9707">
		<stop
   offset="0"
   style="stop-color:#FFFFFF"
   id="stop6941" />

		<stop
   offset="0.4835"
   style="stop-color:#FFF200"
   id="stop6943" />

		<stop
   offset="1"
   style="stop-color:#ED1C24"
   id="stop6945" />

	</linearGradient>

	
	<linearGradient
   id="SVGID_5_"
   gradientUnits="userSpaceOnUse"
   x1="164.7256"
   y1="64.575203"
   x2="78.826797"
   y2="119.1571">
		<stop
   offset="0"
   style="stop-color:#FFFFFF"
   id="stop6950" />

		<stop
   offset="0.4835"
   style="stop-color:#FFF200"
   id="stop6952" />

		<stop
   offset="1"
   style="stop-color:#ED1C24"
   id="stop6954" />

	</linearGradient>

	
	<linearGradient
   id="SVGID_6_"
   gradientUnits="userSpaceOnUse"
   x1="286.48441"
   y1="104.0166"
   x2="75.407402"
   y2="278.9805">
		<stop
   offset="0"
   style="stop-color:#ffffff;stop-opacity:1;"
   id="stop6959" />

		<stop
   offset="0.24193548"
   style="stop-color:#fff200;stop-opacity:0.50862068;"
   id="stop6961" />

		<stop
   offset="1"
   style="stop-color:#ed1c24;stop-opacity:0;"
   id="stop6963" />

	</linearGradient>

	
	<linearGradient
   id="SVGID_7_"
   gradientUnits="userSpaceOnUse"
   x1="374.7988"
   y1="2.2056"
   x2="309.32861"
   y2="89.773102">
		<stop
   offset="0"
   style="stop-color:#FFFFFF"
   id="stop6968" />

		<stop
   offset="0.4835"
   style="stop-color:#FFF200"
   id="stop6970" />

		<stop
   offset="1"
   style="stop-color:#ED1C24"
   id="stop6972" />

	</linearGradient>

	

	
	
	
	
	<linearGradient
   id="SVGID_2_-4"
   gradientUnits="userSpaceOnUse"
   x1="398.1221"
   y1="50.902802"
   x2="289.96811"
   y2="168.3773">
		<stop
   offset="0"
   style="stop-color:#FFFFFF"
   id="stop7824" />

		<stop
   offset="0.4835"
   style="stop-color:#FFF200"
   id="stop7826" />

		<stop
   offset="1"
   style="stop-color:#ED1C24"
   id="stop7828" />

	</linearGradient>

	
	<linearGradient
   id="SVGID_3_-4"
   gradientUnits="userSpaceOnUse"
   x1="328.1748"
   y1="160.1606"
   x2="240.9735"
   y2="195.1925">
		<stop
   offset="0"
   style="stop-color:#FFFFFF"
   id="stop7833" />

		<stop
   offset="0.4835"
   style="stop-color:#FFF200"
   id="stop7835" />

		<stop
   offset="1"
   style="stop-color:#ED1C24"
   id="stop7837" />

	</linearGradient>

	
	<linearGradient
   id="SVGID_4_-8"
   gradientUnits="userSpaceOnUse"
   x1="317.95609"
   y1="70.477501"
   x2="159.0531"
   y2="177.9707">
		<stop
   offset="0"
   style="stop-color:#FFFFFF"
   id="stop7842" />

		<stop
   offset="0.4835"
   style="stop-color:#FFF200"
   id="stop7844" />

		<stop
   offset="1"
   style="stop-color:#ED1C24"
   id="stop7846" />

	</linearGradient>

	
	<linearGradient
   id="SVGID_5_-3"
   gradientUnits="userSpaceOnUse"
   x1="164.7256"
   y1="64.575203"
   x2="78.826797"
   y2="119.1571">
		<stop
   offset="0"
   style="stop-color:#FFFFFF"
   id="stop7851" />

		<stop
   offset="0.4835"
   style="stop-color:#FFF200"
   id="stop7853" />

		<stop
   offset="1"
   style="stop-color:#ED1C24"
   id="stop7855" />

	</linearGradient>

	
	<linearGradient
   id="SVGID_6_-9"
   gradientUnits="userSpaceOnUse"
   x1="286.48441"
   y1="104.0166"
   x2="75.407402"
   y2="278.9805">
		<stop
   offset="0"
   style="stop-color:#FFFFFF"
   id="stop7860" />

		<stop
   offset="0.4835"
   style="stop-color:#FFF200"
   id="stop7862" />

		<stop
   offset="1"
   style="stop-color:#ED1C24"
   id="stop7864" />

	</linearGradient>

	
	<linearGradient
   id="SVGID_7_-9"
   gradientUnits="userSpaceOnUse"
   x1="374.7988"
   y1="2.2056"
   x2="309.32861"
   y2="89.773102">
		<stop
   offset="0"
   style="stop-color:#FFFFFF"
   id="stop7869" />

		<stop
   offset="0.4835"
   style="stop-color:#FFF200"
   id="stop7871" />

		<stop
   offset="1"
   style="stop-color:#ED1C24"
   id="stop7873" />

	</linearGradient>

	
</defs>
  <sodipodi:namedview
     id="base"
     pagecolor="#ffffff"
     bordercolor="#666666"
     borderopacity="1.0"
     inkscape:pageopacity="0.0"
     inkscape:pageshadow="2"
     inkscape:zoom="0.49497475"
     inkscape:cx="535.28145"
     inkscape:cy="77.22557"
     inkscape:document-units="px"
     inkscape:current-layer="layer1"
     showgrid="false"
     inkscape:window-width="1366"
     inkscape:window-height="721"
     inkscape:window-x="-2"
     inkscape:window-y="-3"
     inkscape:window-maximized="1"
     fit-margin-top="10"
     fit-margin-right="10"
     fit-margin-bottom="10"
     fit-margin-left="10" />
  <metadata
     id="metadata7">
    <rdf:RDF>
      <cc:Work
         rdf:about="">
        <dc:format>image/svg+xml</dc:format>
        <dc:type
           rdf:resource="http://purl.org/dc/dcmitype/StillImage" />
        <dc:title></dc:title>
      </cc:Work>
    </rdf:RDF>
  </metadata>
  <g
     inkscape:label="Layer 1"
     inkscape:groupmode="layer"
     id="layer1"
     transform="translate(-34.861351,-347.1312)">
    <g
       id="g8093"
       transform="matrix(0.73318825,0,0,0.70928232,11.969536,145.08876)">
      <g
         id="flowRoot2985"
         style="font-size:40px;font-style:normal;font-weight:normal;line-height:125%;letter-spacing:0px;word-spacing:0px;fill:#4d4d4d;fill-opacity:1;stroke:none;font-family:Sans"
         transform="translate(-43.310399,46.551123)">
        <path
           inkscape:connector-curvature="0"
           id="path3835"
           style="font-size:144px;font-variant:normal;font-stretch:normal;fill:#4d4d4d;font-family:Advent Pro;-inkscape-font-specification:Advent Pro"
           d="m 119.70775,391.74236 c -21.024016,0 -31.536005,-8.59199 -31.536,-25.776 l 0,-11.952 c -5e-6,-9.50395 3.311991,-15.88795 9.936,-19.152 3.45598,-1.63194 6.86398,-2.44794 10.224,-2.448 11.32796,6e-5 20.39995,2.68806 27.216,8.064 -5e-5,-5.27994 -1.53605,-9.45594 -4.608,-12.528 -3.07205,-3.16793 -8.97604,-4.75193 -17.712,-4.752 l 0.432,-6.192 c 7.77596,8e-5 13.53596,0.91207 17.28,2.736 2.01595,1.05607 3.79195,2.11207 5.328,3.168 1.53595,1.05607 2.73594,2.44807 3.6,4.176 0.86394,1.72806 1.58394,3.26406 2.16,4.608 0.57594,1.24806 0.95994,2.97606 1.152,5.184 0.28794,3.36005 0.43194,6.86405 0.432,10.512 l 0,42.912 c -9.98405,0.96 -17.95204,1.44 -23.904,1.44 m 15.84,-8.064 0,-37.008 c -7.96804,-3.83995 -16.12804,-6.09595 -24.48,-6.768 -0.57603,-0.0959 -1.15203,-0.14395 -1.728,-0.144 -3.64802,5e-5 -6.76802,1.15205 -9.36,3.456 -2.592015,2.20805 -3.888013,5.95204 -3.888,11.232 l 0,12.528 c -1.3e-5,7.96802 3.455983,13.15201 10.368,15.552 4.03197,1.44001 8.59197,2.16001 13.68,2.16 5.08796,1e-5 10.22395,-0.33599 15.408,-1.008" />
        <path
           inkscape:connector-curvature="0"
           id="path3837"
           style="font-size:144px;font-variant:normal;font-stretch:normal;fill:#4d4d4d;font-family:Advent Pro;-inkscape-font-specification:Advent Pro"
           d="m 186.2335,317.00636 c 7.96795,8e-5 14.30395,1.68007 19.008,5.04 l 0,-32.544 8.064,0 0,100.8 c -8.25606,1.152 -15.88805,1.728 -22.896,1.728 -7.00803,0 -13.34403,-1.44 -19.008,-4.32 -7.48801,-3.83999 -11.23201,-10.51198 -11.232,-20.016 l 0,-27.216 c -1e-5,-10.07994 4.07998,-16.99193 12.24,-20.736 3.93597,-1.82393 8.54397,-2.73592 13.824,-2.736 m 19.008,12.096 c -5.85605,-3.26393 -12.24004,-4.89593 -19.152,-4.896 -6.04803,7e-5 -10.56003,1.53607 -13.536,4.608 -2.97602,3.07206 -4.46402,7.10406 -4.464,12.096 l 0,26.928 c -2e-5,11.23201 7.53597,16.84801 22.608,16.848 4.31995,1e-5 9.16795,-0.43199 14.544,-1.296 l 0,-54.288" />
        <path
           sodipodi:nodetypes="ccccccccccccccccccccccccccc"
           inkscape:connector-curvature="0"
           id="path3839"
           style="font-size:144px;font-variant:normal;font-stretch:normal;fill:#4d4d4d;font-family:Advent Pro;-inkscape-font-specification:Advent Pro"
           d="m 273.565,323.91836 c 8.15994,-4.60793 15.88793,-6.91192 23.184,-6.912 6.91191,8e-5 12.38391,2.20807 16.416,6.624 4.0319,4.41606 6.0479,10.03206 6.048,16.848 l 0,49.824 -7.92,0 0,-49.392 c -9e-5,-4.31994 -0.91209,-7.82394 -2.736,-10.512 -1.82409,-2.68794 -4.03209,-4.36793 -6.624,-5.04 -2.59208,-0.67193 -4.70408,-1.00793 -6.336,-1.008 -1.53608,7e-5 -3.31207,0.0961 -5.328,0.288 -1.92007,0.0961 -4.51207,0.76807 -7.776,2.016 l -4.43514,3.66343 c 1.63194,3.26406 1.55508,5.93663 1.55514,10.16057 l 0,49.824 -7.92,0 0,-49.392 c -5e-5,-4.99194 -1.20005,-8.87994 -3.6,-11.664 -2.88005,-3.26393 -7.29604,-4.89593 -13.248,-4.896 -5.85603,7e-5 -11.66403,4.44121 -17.424,7.60914 l 0,58.34286 -8.064,0 0,-72.144 8.064,0 -0.72,4.608 c 6.62397,-3.74393 13.29597,-5.61592 20.016,-5.616 6.81595,8e-5 12.43195,2.25607 16.848,6.768" />
        <path
           inkscape:connector-curvature="0"
           id="path3841"
           style="font-size:144px;font-variant:normal;font-stretch:normal;fill:#4d4d4d;font-family:Advent Pro;-inkscape-font-specification:Advent Pro"
           d="m 344.755,292.95836 c -2e-5,1.2481 -0.48002,2.3521 -1.44,3.312 -0.96002,0.9601 -2.11202,1.44009 -3.456,1.44 -1.24801,9e-5 -2.35201,-0.4799 -3.312,-1.44 -0.96001,-1.0559 -1.44001,-2.2079 -1.44,-3.456 -1e-5,-1.2479 0.47999,-2.3519 1.44,-3.312 0.95999,-0.9599 2.11199,-1.4399 3.456,-1.44 1.34398,10e-5 2.44798,0.4801 3.312,1.44 0.95998,0.9601 1.43998,2.1121 1.44,3.456 m -0.864,97.344 -8.064,0 0,-72.144 8.064,0 0,72.144" />
        <path
           sodipodi:nodetypes="cccsccccccccccc"
           inkscape:connector-curvature="0"
           id="path3843"
           style="font-size:144px;font-variant:normal;font-stretch:normal;fill:#4d4d4d;font-family:Advent Pro;-inkscape-font-specification:Advent Pro"
           d="m 372.92275,323.05436 c 4.89598,-4.12793 11.75997,-6.19192 20.592,-6.192 4.99196,8e-5 9.26395,0.91207 12.816,2.736 8.15994,3.74407 12.23994,10.70406 12.24,20.88 l 0,49.824 -7.92,0 0,-49.392 c -5e-5,-4.99194 -1.34405,-8.87994 -4.032,-11.664 -3.26405,-3.35993 -8.16004,-5.03993 -14.688,-5.04 -6.43203,7e-5 -13.33363,3.02103 -18.432,7.92646 l 0,58.16954 -8.064,0 0,-72.144 8.064,0 -0.576,4.896" />
        <path
           inkscape:connector-curvature="0"
           id="path3845"
           style="font-weight:bold;fill:#4d4d4d;-inkscape-font-specification:Advent Pro Bold"
           d="m 529.30675,390.30236 -15.84,0 0,-43.776 c -9e-5,-7.10395 -1.39208,-11.61594 -4.176,-13.536 -1.24808,-0.76794 -2.78408,-1.15194 -4.608,-1.152 -2.40007,6e-5 -5.37607,0.67206 -8.928,2.016 l -2.448,1.008 c 0.38393,0.96006 0.57593,2.35206 0.576,4.176 l 0,51.264 -15.84,0 0,-43.344 c -5e-5,-6.91195 -2.25605,-11.47194 -6.768,-13.68 -1.72804,-0.95994 -3.60004,-1.43994 -5.616,-1.44 -3.16803,6e-5 -6.62403,1.10406 -10.368,3.312 l 0,55.152 -15.84,0 0,-72.144 13.968,0 1.872,1.008 c 2.59197,-1.15193 5.51997,-1.87192 8.784,-2.16 0.67196,-0.0959 1.34396,-0.14392 2.016,-0.144 2.68796,8e-5 5.47196,0.48008 8.352,1.44 3.64795,1.15207 6.71995,3.02407 9.216,5.616 1.34394,-0.76793 3.35994,-1.82393 6.048,-3.168 6.14393,-2.49593 11.85593,-3.74392 17.136,-3.744 0.67192,8e-5 1.34392,8e-5 2.016,0 5.95191,0.38407 10.84791,2.68807 14.688,6.912 3.8399,4.22406 5.7599,9.74406 5.76,16.56 l 0,49.824" />
        <path
           inkscape:connector-curvature="0"
           id="path3847"
           style="font-weight:bold;fill:#4d4d4d;-inkscape-font-specification:Advent Pro Bold"
           d="m 595.5805,347.39036 0,42.912 c -9.98405,0.96 -17.95204,1.44 -23.904,1.44 -2.68803,0 -4.94403,-0.096 -6.768,-0.288 -15.74401,-1.728 -24.00001,-9.55199 -24.768,-23.472 -10e-6,-0.67197 -10e-6,-1.34397 0,-2.016 l 0,-11.952 c -10e-6,-9.50395 3.31199,-15.88795 9.936,-19.152 2.78398,-1.53594 5.95198,-2.30394 9.504,-2.304 0.57597,6e-5 1.10397,0.0481 1.584,0.144 4.22397,0.19206 7.87197,0.72006 10.944,1.584 3.07196,0.76806 5.61596,1.72806 7.632,2.88 -4e-5,-6.14394 -5.13604,-9.21594 -15.408,-9.216 l 1.296,-10.944 c 3.64797,8e-5 6.91196,0.24008 9.792,0.72 2.97596,0.38407 5.47195,1.10407 7.488,2.16 2.01595,0.96007 3.79195,1.96807 5.328,3.024 1.53595,1.05607 2.73594,2.44807 3.6,4.176 0.86394,1.72806 1.58394,3.26406 2.16,4.608 0.57594,1.24806 0.95994,2.97606 1.152,5.184 0.19194,2.20805 0.28794,3.93605 0.288,5.184 0.0959,1.24805 0.14394,3.02405 0.144,5.328 m -15.84,28.944 0,-22.32 c -1.53604,-1.05596 -3.55204,-2.01596 -6.048,-2.88 -2.40004,-0.95996 -4.99203,-1.67996 -7.776,-2.16 -0.76803,-0.096 -1.53603,-0.14396 -2.304,-0.144 -1.72803,4e-5 -3.26403,0.38404 -4.608,1.152 -1.92002,1.15204 -2.88002,3.16804 -2.88,6.048 l 0,7.92 c -2e-5,8.83202 5.08797,13.24802 15.264,13.248 2.49596,2e-5 5.27996,-0.28798 8.352,-0.864" />
        <path
           inkscape:connector-curvature="0"
           id="path3849"
           style="font-weight:bold;fill:#4d4d4d;-inkscape-font-specification:Advent Pro Bold"
           d="m 673.48225,390.30236 -18.864,0 -12.672,-20.16 -12.528,20.16 -19.728,0 22.464,-35.856 -22.464,-36.288 20.016,0 12.384,20.592 12.96,-20.592 19.584,0 -22.896,36.144 21.744,36" />
      </g>
      <g
         style="fill:#000000;stroke:#000000;stroke-width:3.13375497;stroke-linejoin:round;stroke-miterlimit:4;stroke-dasharray:none"
         transform="matrix(0.88358556,0,0,0.897077,256.15955,-260.11545)"
         id="g6287">
        <path
           sodipodi:type="arc"
           style="fill:#000000;fill-opacity:1;stroke:#000000;stroke-width:2.37880659;stroke-linejoin:round;stroke-miterlimit:4;stroke-dasharray:none;filter:url(#filter5522)"
           id="path5514"
           sodipodi:cx="486.42856"
           sodipodi:cy="606.64789"
           sodipodi:rx="40.714287"
           sodipodi:ry="40.714287"
           d="m 527.14285,606.64789 c 0,22.48588 -18.22841,40.71428 -40.71429,40.71428 -22.48588,0 -40.71429,-18.2284 -40.71429,-40.71428 0,-22.48588 18.22841,-40.71429 40.71429,-40.71429 22.48588,0 40.71429,18.22841 40.71429,40.71429 z"
           transform="matrix(1.3292798,0,0,1.3055556,-107.49568,-91.376544)" />
        <path
           sodipodi:type="arc"
           style="fill:#000000;fill-opacity:1;stroke:#000000;stroke-width:2.37880659;stroke-linejoin:round;stroke-miterlimit:4;stroke-dasharray:none;filter:url(#filter5544)"
           id="path5516"
           sodipodi:cx="600.71429"
           sodipodi:cy="632.36218"
           sodipodi:rx="51.42857"
           sodipodi:ry="51.42857"
           d="m 652.14286,632.36218 c 0,28.40322 -23.02535,51.42857 -51.42857,51.42857 -28.40321,0 -51.42857,-23.02535 -51.42857,-51.42857 0,-28.40321 23.02536,-51.42857 51.42857,-51.42857 28.40322,0 51.42857,23.02536 51.42857,51.42857 z"
           transform="matrix(1.3292798,0,0,1.3055556,-293.11576,-88.221784)" />
        <path
           sodipodi:type="arc"
           style="fill:#000000;fill-opacity:1;stroke:#000000;stroke-width:2.60769653;stroke-linejoin:round;stroke-miterlimit:4;stroke-dasharray:none;filter:url(#filter5556)"
           id="path5520"
           sodipodi:cx="691.07141"
           sodipodi:cy="692.00507"
           sodipodi:rx="26.071428"
           sodipodi:ry="26.071428"
           d="m 717.14284,692.00507 c 0,14.39885 -11.67258,26.07142 -26.07143,26.07142 -14.39885,0 -26.07143,-11.67257 -26.07143,-26.07142 0,-14.39886 11.67258,-26.07143 26.07143,-26.07143 14.39885,0 26.07143,11.67257 26.07143,26.07143 z"
           transform="matrix(1.2140712,0,0,1.1895201,-237.9585,-53.142924)" />
      </g>
    </g>
  </g>
</svg>
